<svg version="1.1" xmlns="http://www.w3.org/2000/svg" xmlns:xlink="http://www.w3.org/1999/xlink" width="61" height="100"><defs/><g><path fill="rgb(24,207,171)" stroke="none" paint-order="stroke fill markers" fill-rule="evenodd" d=" M 18.418365478515625 96.83210521936417 C 18.418365478515625 98.02166545391083 19.38287353515625 98.99789190292358 20.561729431152344 98.99789190292358 C 20.561729431152344 98.99789190292358 52.240806579589844 98.99789190292358 52.240806579589844 98.99789190292358 C 53.41966247558594 98.99789190292358 54.384056091308594 98.02166545391083 54.384056091308594 96.83210521936417 C 54.384056091308594 96.83210521936417 54.384056091308594 91.86812490224838 54.384056091308594 91.86812490224838 C 54.384056091308594 91.86812490224838 18.418365478515625 91.86812490224838 18.418365478515625 91.86812490224838 C 18.418365478515625 91.86812490224838 18.418365478515625 96.83210521936417 18.418365478515625 96.83210521936417 Z M 17.70013427734375 36.97713476419449 C 17.70013427734375 36.97713476419449 17.71100616455078 21.12898898124695 17.71100616455078 21.12898898124695 C 17.71100616455078 19.29873698949814 18.3968505859375 17.58654350042343 19.650779724121094 16.307231187820435 C 21.043869018554688 14.900885164737701 23.037200927734375 14.097949266433716 25.137649536132812 14.097949266433716 C 26.777359008789062 14.097949266433716 28.352867126464844 14.608155310153961 29.57452392578125 15.517412900924683 C 31.053558349609375 16.622744262218475 31.97503662109375 18.29144251346588 32.16809844970703 20.196948170661926 C 32.16809844970703 20.240443408489227 33.014503479003906 28.50591939687729 33.775421142578125 35.9049426317215 C 39.10173034667969 32.74152708053589 42.69208526611328 26.893143594264984 42.69208526611328 20.196948170661926 C 42.69208526611328 10.144715428352356 34.63269805908203 1.9972979426383972 24.687667846679688 1.9972979426383972 C 14.742523193359375 1.9972979426383972 6.683135986328125 10.144715428352356 6.683135986328125 20.196948170661926 C 6.672607421875 27.736813127994537 11.216598510742188 34.21415156126022 17.70013427734375 36.97713476419449 Z M 59.999900817871094 57.65739434957504 C 59.999900817871094 55.54476851224899 58.660255432128906 53.67102128267288 56.66680908203125 53.02204471826553 C 50.719085693359375 51.059926211833954 38.71595001220703 47.150187611579895 36.88340759277344 46.78082329034805 C 36.3155517578125 46.673811197280884 35.758338928222656 46.61995995044708 35.22218322753906 46.61995995044708 C 33.775421142578125 46.61995995044708 32.510963439941406 47.01970189809799 31.74993133544922 47.70319849252701 C 31.74993133544922 47.70319849252701 31.739402770996094 47.70319849252701 31.739402770996094 47.70319849252701 C 31.739402770996094 47.70319849252701 31.739402770996094 47.70319849252701 31.739402770996094 47.69077128171921 C 31.728759765625 47.60516160726547 28.9638671875 20.577358901500702 28.9638671875 20.5338636636734 C 28.7386474609375 18.366005778312683 26.959548950195312 17.337999284267426 25.12700653076172 17.337999284267426 C 23.04784393310547 17.337999284267426 20.90447998046875 18.658735632896423 20.91546630859375 21.11725217103958 C 20.91546630859375 21.11725217103958 20.893836975097656 64.91557586193085 20.893836975097656 64.91557586193085 C 20.893836975097656 65.43613791465759 20.518699645996094 65.86970949172974 20.00440216064453 65.94427275657654 C 19.9935302734375 65.94427275657654 19.9935302734375 65.94427275657654 19.982887268066406 65.94427275657654 C 19.940200805664062 65.95669996738434 19.886642456054688 65.95669996738434 19.84349822998047 65.95669996738434 C 19.832969665527344 65.95669996738434 19.82232666015625 65.95669996738434 19.81134033203125 65.95669996738434 C 18.354049682617188 65.9125143289566 15.063987731933594 65.86970949172974 11.859642028808594 61.178437411785126 C 11.430831909179688 60.56121927499771 11.045051574707031 59.99854278564453 10.691429138183594 59.47729033231735 C 9.576889038085938 57.863824129104614 8.08709716796875 57.171352326869965 6.683135986328125 57.171352326869965 C 4.218421936035156 57.171352326869965 1.9999847412109375 59.325402200222015 2.535797119140625 62.54404979944229 C 3.307586669921875 67.2353218793869 8.387161254882812 78.16436338424683 18.3968505859375 88.41405069828033 C 18.3968505859375 88.41405069828033 54.362770080566406 88.41405069828033 54.362770080566406 88.41405069828033 C 54.362770080566406 88.41405069828033 57.995582580566406 82.20596849918365 57.995582580566406 82.20596849918365 C 59.29231262207031 80.00704258680344 59.97850036621094 77.49398440122604 59.97850036621094 74.92638456821442 C 59.97850036621094 74.92638456821442 59.999900817871094 57.65739434957504 59.999900817871094 57.65739434957504 Z"/></g></svg>