<svg version="1.1" xmlns="http://www.w3.org/2000/svg" xmlns:xlink="http://www.w3.org/1999/xlink" width="96" height="78"><defs/><g><path fill="rgb(255,255,255)" stroke="none" paint-order="stroke fill markers" fill-rule="evenodd" d=" M 76.29437255859375 1.9974507093429565 C 76.29437255859375 1.9974507093429565 64.04999542236328 20.415957927703857 64.04999542236328 20.415957927703857 C 64.04999542236328 20.415957927703857 51.395347595214844 1.9974507093429565 51.395347595214844 1.9974507093429565 C 51.395347595214844 1.9974507093429565 76.29437255859375 1.9974507093429565 76.29437255859375 1.9974507093429565 Z M 62.105873107910156 24.628091990947723 C 62.105873107910156 24.628091990947723 34.943092346191406 24.628091990947723 34.943092346191406 24.628091990947723 C 34.943092346191406 24.628091990947723 48.52265167236328 76.02772629261017 48.52265167236328 76.02772629261017 C 48.52265167236328 76.02772629261017 62.105873107910156 24.628091990947723 62.105873107910156 24.628091990947723 Z M 35.84992218017578 21.60966056585312 C 35.84992218017578 21.60966056585312 61.19721221923828 21.60966056585312 61.19721221923828 21.60966056585312 C 61.19721221923828 21.60966056585312 48.52265167236328 3.161466121673584 48.52265167236328 3.161466121673584 C 48.52265167236328 3.161466121673584 35.84992218017578 21.60966056585312 35.84992218017578 21.60966056585312 Z M 32.997596740722656 20.415957927703857 C 32.997596740722656 20.415957927703857 45.651100158691406 1.9974507093429565 45.651100158691406 1.9974507093429565 C 45.651100158691406 1.9974507093429565 20.75402069091797 1.9974507093429565 20.75402069091797 1.9974507093429565 C 20.75402069091797 1.9974507093429565 32.997596740722656 20.415957927703857 32.997596740722656 20.415957927703857 Z M 45.64503479003906 76.99773913621902 C 45.64503479003906 76.99773913621902 31.80901336669922 24.628091990947723 31.80901336669922 24.628091990947723 C 31.80901336669922 24.628091990947723 1.9999008178710938 24.628091990947723 1.9999008178710938 24.628091990947723 C 1.9999008178710938 24.628091990947723 45.64503479003906 76.99773913621902 45.64503479003906 76.99773913621902 Z M 2.0424728393554688 21.60966056585312 C 2.0424728393554688 21.60966056585312 30.156829833984375 21.60966056585312 30.156829833984375 21.60966056585312 C 30.156829833984375 21.60966056585312 17.909820556640625 3.187010943889618 17.909820556640625 3.187010943889618 C 17.909820556640625 3.187010943889618 2.0424728393554688 21.60966056585312 2.0424728393554688 21.60966056585312 Z M 79.11648559570312 3.2222213745117188 C 79.11648559570312 3.2222213745117188 66.89236450195312 21.60966056585312 66.89236450195312 21.60966056585312 C 66.89236450195312 21.60966056585312 94.95728302001953 21.60966056585312 94.95728302001953 21.60966056585312 C 94.95728302001953 21.60966056585312 79.11648559570312 3.2222213745117188 79.11648559570312 3.2222213745117188 Z M 65.23857879638672 24.628091990947723 C 65.23857879638672 24.628091990947723 51.400726318359375 76.99221593141556 51.400726318359375 76.99221593141556 C 51.400726318359375 76.99221593141556 94.99996948242188 24.628091990947723 94.99996948242188 24.628091990947723 C 94.99996948242188 24.628091990947723 65.23857879638672 24.628091990947723 65.23857879638672 24.628091990947723 Z"/></g></svg>