<svg version="1.1" xmlns="http://www.w3.org/2000/svg" xmlns:xlink="http://www.w3.org/1999/xlink" width="102" height="79"><defs/><g><path fill="rgb(255,255,255)" stroke="none" paint-order="stroke fill markers" fill-rule="evenodd" d=" M 1.9999465942382812 77.99773913621902 C 1.9999465942382812 77.99773913621902 40.796905517578125 77.99773913621902 40.796905517578125 77.99773913621902 C 40.796905517578125 77.99773913621902 40.796905517578125 20.976172745227814 40.796905517578125 20.976172745227814 C 40.796905517578125 20.976172745227814 1.9999465942382812 20.976172745227814 1.9999465942382812 20.976172745227814 C 1.9999465942382812 20.976172745227814 1.9999465942382812 77.99773913621902 1.9999465942382812 77.99773913621902 Z M 22.21685028076172 75.13948065042496 C 21.184249877929688 75.13948065042496 20.34814453125 74.31169033050537 20.34814453125 73.30370545387268 C 20.34814453125 72.29572057723999 21.184249877929688 71.47345346212387 22.21685028076172 71.47345346212387 C 23.2503662109375 71.47345346212387 24.087730407714844 72.29572057723999 24.087730407714844 73.30370545387268 C 24.090591430664062 74.31169033050537 23.2503662109375 75.13948065042496 22.21685028076172 75.13948065042496 Z M 7.61041259765625 26.47038072347641 C 7.61041259765625 26.47038072347641 35.19055938720703 26.47038072347641 35.19055938720703 26.47038072347641 C 35.19055938720703 26.47038072347641 35.188499450683594 68.54339331388474 35.188499450683594 68.54339331388474 C 35.188499450683594 68.54339331388474 7.61041259765625 68.54339331388474 7.61041259765625 68.54339331388474 C 7.61041259765625 68.54339331388474 7.61041259765625 26.47038072347641 7.61041259765625 26.47038072347641 Z M 21.188369750976562 7.362853705883026 C 21.188369750976562 7.362853705883026 83.36194610595703 7.362853705883026 83.36194610595703 7.362853705883026 C 83.36194610595703 7.362853705883026 83.36194610595703 32.081956803798676 83.36194610595703 32.081956803798676 C 83.36194610595703 32.081956803798676 88.84126281738281 32.081956803798676 88.84126281738281 32.081956803798676 C 88.84126281738281 32.081956803798676 88.84126281738281 1.9977506399154663 88.84126281738281 1.9977506399154663 C 88.84126281738281 1.9977506399154663 15.710197448730469 1.9977506399154663 15.710197448730469 1.9977506399154663 C 15.710197448730469 1.9977506399154663 15.710197448730469 18.538368225097656 15.710197448730469 18.538368225097656 C 15.710197448730469 18.538368225097656 21.188369750976562 18.538368225097656 21.188369750976562 18.538368225097656 C 21.188369750976562 18.538368225097656 21.188369750976562 7.362853705883026 21.188369750976562 7.362853705883026 Z M 43.29743957519531 43.87330865859985 C 43.29743957519531 43.87330865859985 72.1105728149414 43.87330865859985 72.1105728149414 43.87330865859985 C 72.1105728149414 43.87330865859985 72.1105728149414 49.23910212516785 72.1105728149414 49.23910212516785 C 72.1105728149414 49.23910212516785 43.29743957519531 49.23910212516785 43.29743957519531 49.23910212516785 C 43.29743957519531 49.23910212516785 43.29743957519531 43.87330865859985 43.29743957519531 43.87330865859985 Z M 74.94275665283203 34.163514614105225 C 74.94275665283203 34.163514614105225 74.94275665283203 77.10643196105957 74.94275665283203 77.10643196105957 C 74.94275665283203 77.10643196105957 100.99992370605469 77.10643196105957 100.99992370605469 77.10643196105957 C 100.99992370605469 77.10643196105957 100.99992370605469 34.163514614105225 100.99992370605469 34.163514614105225 C 100.99992370605469 34.163514614105225 74.94275665283203 34.163514614105225 74.94275665283203 34.163514614105225 Z M 88.55012512207031 35.94198656082153 C 88.89813995361328 35.94198656082153 89.1789779663086 36.216765999794006 89.1789779663086 36.558514297008514 C 89.1789779663086 36.89612019062042 88.89813995361328 37.177113234996796 88.55012512207031 37.177113234996796 C 88.20222473144531 37.177113234996796 87.91944122314453 36.89612019062042 87.91944122314453 36.558514297008514 C 87.91944122314453 36.214694797992706 88.20222473144531 35.94198656082153 88.55012512207031 35.94198656082153 Z M 84.80241394042969 38.001451551914215 C 84.80241394042969 38.001451551914215 92.29783630371094 38.001451551914215 92.29783630371094 38.001451551914215 C 92.29783630371094 38.001451551914215 92.29783630371094 38.591053664684296 92.29783630371094 38.591053664684296 C 92.29783630371094 38.591053664684296 84.80241394042969 38.591053664684296 84.80241394042969 38.591053664684296 C 84.80241394042969 38.591053664684296 84.80241394042969 38.001451551914215 84.80241394042969 38.001451551914215 Z M 88.30384826660156 75.25270634889603 C 87.47598266601562 75.25270634889603 86.8004379272461 74.59061217308044 86.8004379272461 73.77732026576996 C 86.8004379272461 72.96817076206207 87.47174835205078 72.30607658624649 88.30384826660156 72.30607658624649 C 89.1320571899414 72.30607658624649 89.80748748779297 72.96402835845947 89.80748748779297 73.77732026576996 C 89.80748748779297 74.59061217308044 89.1320571899414 75.25270634889603 88.30384826660156 75.25270634889603 Z M 96.81893920898438 70.19552195072174 C 90.05170440673828 70.23349398374557 82.47880554199219 70.25696760416031 79.12385559082031 70.23004198074341 C 79.12385559082031 70.23004198074341 79.12385559082031 40.70436990261078 79.12385559082031 40.70436990261078 C 79.12385559082031 40.70436990261078 96.81893920898438 40.70022749900818 96.81893920898438 40.70022749900818 C 96.81893920898438 40.70022749900818 96.81893920898438 70.19552195072174 96.81893920898438 70.19552195072174 Z M 51.22727966308594 51.43526643514633 C 51.22727966308594 51.43526643514633 43.29743957519531 51.43526643514633 43.29743957519531 51.43526643514633 C 43.29743957519531 51.43526643514633 43.29743957519531 54.68774366378784 43.29743957519531 54.68774366378784 C 43.29743957519531 54.68774366378784 62.61094665527344 54.68774366378784 62.61094665527344 54.68774366378784 C 62.61094665527344 54.68774366378784 62.61094665527344 56.112730503082275 62.61094665527344 56.112730503082275 C 62.61094665527344 56.112730503082275 43.29743957519531 56.112730503082275 43.29743957519531 56.112730503082275 C 43.29743957519531 56.112730503082275 43.29743957519531 59.05245625972748 43.29743957519531 59.05245625972748 C 43.29743957519531 59.05245625972748 72.1105728149414 59.05245625972748 72.1105728149414 59.05245625972748 C 72.1105728149414 59.05245625972748 72.1105728149414 51.43526643514633 72.1105728149414 51.43526643514633 C 72.1105728149414 51.43526643514633 53.31273651123047 51.43526643514633 53.31273651123047 51.43526643514633 C 53.31273651123047 51.43526643514633 51.22727966308594 51.43526643514633 51.22727966308594 51.43526643514633 Z"/></g></svg>