<svg version="1.1" xmlns="http://www.w3.org/2000/svg" xmlns:xlink="http://www.w3.org/1999/xlink" width="62" height="99"><defs/><g><path fill="rgb(24,207,171)" stroke="none" paint-order="stroke fill markers" fill-rule="evenodd" d=" M 48.99995422363281 76.9982767701149 C 48.99995422363281 78.65592861175537 47.65813446044922 79.99737697839737 46 79.99737697839737 C 46 79.99737697839737 16 79.99737697839737 16 79.99737697839737 C 14.341751098632812 79.99737697839737 12.999931335449219 78.65592861175537 12.999931335449219 76.9982767701149 C 12.999931335449219 75.339934527874 14.341751098632812 73.99779576063156 16 73.99779576063156 C 16 73.99779576063156 46 73.99779576063156 46 73.99779576063156 C 47.65813446044922 73.99779576063156 48.99995422363281 75.339934527874 48.99995422363281 76.9982767701149 Z M 46 82.9978579878807 C 46 82.9978579878807 16 82.9978579878807 16 82.9978579878807 C 14.341751098632812 82.9978579878807 12.999931335449219 84.33861595392227 12.999931335449219 85.99833899736404 C 12.999931335449219 87.65668123960495 14.341751098632812 88.99674880504608 16 88.99674880504608 C 16 88.99674880504608 46 88.99674880504608 46 88.99674880504608 C 47.65813446044922 88.99674880504608 48.99995422363281 87.65668123960495 48.99995422363281 85.99833899736404 C 48.99995422363281 84.33861595392227 47.65813446044922 82.9978579878807 46 82.9978579878807 Z M 24.999977111816406 97.99750143289566 C 24.999977111816406 97.99750143289566 36.999908447265625 97.99750143289566 36.999908447265625 97.99750143289566 C 40.31640625 97.99750143289566 42.99993133544922 95.31391429901123 42.99993133544922 91.99792021512985 C 42.99993133544922 91.99792021512985 18.999954223632812 91.99792021512985 18.999954223632812 91.99792021512985 C 18.999954223632812 95.31391429901123 21.68359375 97.99750143289566 24.999977111816406 97.99750143289566 Z M 61 31.997275233268738 C 61 48.30937021970749 51.16792297363281 50.2079718708992 49.32221984863281 67.99683374166489 C 49.32221984863281 69.65655678510666 47.98040008544922 70.99800515174866 46.322265625 70.99800515174866 C 46.322265625 70.99800515174866 15.677734375 70.99800515174866 15.677734375 70.99800515174866 C 14.019371032714844 70.99800515174866 12.677665710449219 69.65655678510666 12.677665710449219 67.99683374166489 C 12.677665710449219 67.99683374166489 12.671829223632812 67.99683374166489 12.671829223632812 67.99683374166489 C 10.832077026367188 50.2079718708992 1 48.30937021970749 1 31.997275233268738 C 1 15.427660822868347 14.429641723632812 1.9972979426383972 31 1.9972979426383972 C 47.57024383544922 1.9972979426383972 61 15.427660822868347 61 31.997275233268738 Z M 43.14641571044922 22.997903406620026 C 8.271461486816406 31.24750018119812 25.146461486816406 52.997880697250366 25.146461486816406 52.997880697250366 C 25.146461486816406 40.99733746051788 33.958984375 38.18464541435242 34.14643859863281 38.56022334098816 C 27.958961486816406 44.5604949593544 25.146461486816406 64.99773353338242 25.146461486816406 64.99773353338242 C 25.146461486816406 64.99773353338242 31.146484375 64.99773353338242 31.146484375 64.99773353338242 C 31.146484375 64.99773353338242 31.146484375 58.997461915016174 31.146484375 52.997880697250366 C 48.20893859863281 53.935444712638855 43.14641571044922 25.059439599514008 43.14641571044922 22.997903406620026 Z"/></g></svg>